<svg width="21" height="21" viewBox="0 0 21 21" fill="none" xmlns="http://www.w3.org/2000/svg">
<circle cx="10.8052" cy="10.5167" r="10" fill="#E30613"/>
<path d="M7.40504 14.5167L13.4076 6.51672H14.2004L8.20298 14.5167H7.40504ZM8.96488 10.5167C8.46724 10.5167 8.07256 10.3451 7.78084 10.0019C7.48912 9.65872 7.34326 9.1954 7.34326 8.61196C7.34326 8.02509 7.48912 7.56177 7.78084 7.222C8.07256 6.8788 8.46724 6.7072 8.96488 6.7072C9.45909 6.7072 9.85206 6.8788 10.1438 7.222C10.4355 7.56177 10.5814 8.02509 10.5814 8.61196C10.5814 9.1954 10.4355 9.65872 10.1438 10.0019C9.85206 10.3451 9.45909 10.5167 8.96488 10.5167ZM8.96488 10.0071C9.22572 10.0071 9.43335 9.8818 9.58779 9.63127C9.74223 9.3773 9.81945 9.03753 9.81945 8.61196C9.81945 8.18296 9.74223 7.84319 9.58779 7.59266C9.43335 7.33869 9.22572 7.2117 8.96488 7.2117C8.70062 7.2117 8.49127 7.33869 8.33683 7.59266C8.18239 7.84319 8.10517 8.18296 8.10517 8.61196C8.10517 9.03753 8.18239 9.3773 8.33683 9.63127C8.49127 9.8818 8.70062 10.0071 8.96488 10.0071ZM12.6457 14.3262C12.1481 14.3262 11.7534 14.1546 11.4617 13.8114C11.1734 13.4682 11.0292 13.0049 11.0292 12.4215C11.0292 11.838 11.1734 11.3747 11.4617 11.0315C11.7534 10.6883 12.1481 10.5167 12.6457 10.5167C13.1433 10.5167 13.538 10.6883 13.8297 11.0315C14.1215 11.3747 14.2673 11.838 14.2673 12.4215C14.2673 13.0049 14.1215 13.4682 13.8297 13.8114C13.538 14.1546 13.1433 14.3262 12.6457 14.3262ZM12.6457 13.8166C12.91 13.8166 13.1193 13.6913 13.2738 13.4408C13.4282 13.1903 13.5054 12.8505 13.5054 12.4215C13.5054 11.9925 13.4282 11.6527 13.2738 11.4022C13.1193 11.1482 12.91 11.0212 12.6457 11.0212C12.3849 11.0212 12.1772 11.1482 12.0228 11.4022C11.8684 11.6527 11.7911 11.9925 11.7911 12.4215C11.7911 12.8505 11.8684 13.1903 12.0228 13.4408C12.1772 13.6913 12.3849 13.8166 12.6457 13.8166Z" fill="white"/>
</svg>
