<svg width="21" height="21" viewBox="0 0 21 21" fill="none" xmlns="http://www.w3.org/2000/svg">
<path d="M10.8052 14.633C10.677 14.633 10.5535 14.5866 10.4573 14.5023C10.0937 14.1844 9.74314 13.8856 9.43388 13.6221L9.4323 13.6207C8.52558 12.848 7.7426 12.1807 7.19781 11.5234C6.58883 10.7886 6.30518 10.0918 6.30518 9.33068C6.30518 8.59116 6.55875 7.90891 7.01915 7.40952C7.48504 6.90421 8.12431 6.62592 8.8194 6.62592C9.33891 6.62592 9.81469 6.79016 10.2335 7.11405C10.4448 7.27754 10.6364 7.47763 10.8052 7.71102C10.974 7.47763 11.1655 7.27754 11.3769 7.11405C11.7957 6.79016 12.2715 6.62592 12.791 6.62592C13.486 6.62592 14.1254 6.90421 14.5913 7.40952C15.0517 7.90891 15.3052 8.59116 15.3052 9.33068C15.3052 10.0918 15.0216 10.7886 14.4126 11.5233C13.8678 12.1807 13.0849 12.848 12.1783 13.6206C11.8685 13.8845 11.5174 14.1838 11.153 14.5024C11.0568 14.5866 10.9332 14.633 10.8052 14.633ZM8.8194 7.15312C8.27331 7.15312 7.77164 7.37106 7.40669 7.76685C7.03632 8.1686 6.83231 8.72396 6.83231 9.33068C6.83231 9.97084 7.07024 10.5434 7.60369 11.187C8.11929 11.8092 8.88621 12.4627 9.77418 13.2195L9.77583 13.2209C10.0863 13.4854 10.4382 13.7854 10.8044 14.1056C11.1729 13.7847 11.5253 13.4843 11.8364 13.2194C12.7243 12.4626 13.4911 11.8092 14.0067 11.187C14.5401 10.5434 14.778 9.97084 14.778 9.33068C14.778 8.72396 14.574 8.1686 14.2037 7.76685C13.8388 7.37106 13.337 7.15312 12.791 7.15312C12.391 7.15312 12.0237 7.28029 11.6994 7.53105C11.4104 7.75462 11.2091 8.03725 11.091 8.235C11.0303 8.33669 10.9235 8.39739 10.8052 8.39739C10.6869 8.39739 10.58 8.33669 10.5193 8.235C10.4014 8.03725 10.2 7.75462 9.91096 7.53105C9.58665 7.28029 9.21937 7.15312 8.8194 7.15312Z" fill="white"/>
</svg>
