<svg width="21" height="21" viewBox="0 0 21 21" fill="none" xmlns="http://www.w3.org/2000/svg">
<circle cx="10.8052" cy="10.3097" r="10" fill="#038100"/>
<path d="M6.43018 10.6162V14.3662C6.43018 14.7112 6.7108 14.9912 7.05518 14.9912H10.1802V10.6162H6.43018Z" fill="white"/>
<path d="M15.1802 8.1163H13.2027C13.3446 8.01942 13.4664 7.92317 13.5514 7.83692C14.0558 7.33005 14.0558 6.50505 13.5514 5.99817C13.0614 5.50442 12.2077 5.50567 11.7183 5.99817C11.4471 6.27005 10.7283 7.37692 10.8277 8.1163H10.7827C10.8814 7.37692 10.1627 6.27005 9.89205 5.99817C9.40205 5.50567 8.5483 5.50567 8.05893 5.99817C7.55518 6.50505 7.55518 7.33005 8.0583 7.83692C8.14393 7.92317 8.2658 8.01942 8.40768 8.1163H6.43018C6.0858 8.1163 5.80518 8.39692 5.80518 8.7413V9.6788C5.80518 9.85129 5.94518 9.9913 6.11768 9.9913H10.1802V8.7413H11.4302V9.9913H15.4927C15.6652 9.9913 15.8052 9.85129 15.8052 9.6788V8.7413C15.8052 8.39692 15.5252 8.1163 15.1802 8.1163ZM10.1433 8.09567C10.1433 8.09567 10.1171 8.1163 10.0277 8.1163C9.5958 8.1163 8.77143 7.66755 8.50205 7.3963C8.24018 7.13255 8.24018 6.70255 8.50205 6.4388C8.62893 6.3113 8.79705 6.2413 8.9758 6.2413C9.15393 6.2413 9.32205 6.3113 9.44893 6.4388C9.87018 6.86255 10.2889 7.94505 10.1433 8.09567ZM11.5821 8.1163C11.4933 8.1163 11.4671 8.0963 11.4671 8.09567C11.3214 7.94505 11.7402 6.86255 12.1614 6.4388C12.4133 6.18442 12.8539 6.18317 13.1083 6.4388C13.3708 6.70255 13.3708 7.13255 13.1083 7.3963C12.8389 7.66755 12.0146 8.1163 11.5821 8.1163Z" fill="white"/>
<path d="M11.4302 10.6162V14.9912H14.5552C14.9002 14.9912 15.1802 14.7112 15.1802 14.3662V10.6162H11.4302Z" fill="white"/>
</svg>
