<svg width="21" height="21" viewBox="0 0 21 21" fill="none" xmlns="http://www.w3.org/2000/svg">
<circle cx="10.8052" cy="10.4597" r="10" fill="#1268B1"/>
<path d="M4.5292 12.9537V13.1037H4.6792H5.20654H5.35654V12.9537V10.1094L7.26648 13.0357L7.31087 13.1037H7.39209H7.99268H8.14268V12.9537V8.6178V8.4678H7.99268H7.46533H7.31533V8.6178V11.4616L5.40838 8.53589L5.364 8.4678H5.28271H4.6792H4.5292V8.6178V12.9537ZM8.96475 12.9537V13.1037H9.11475H11.6636H11.8136V12.9537V12.4938V12.3438H11.6636H9.87998V11.0735H11.2446H11.3946V10.9235V10.4694V10.3194H11.2446H9.87998V9.22776H11.5376H11.6876V9.07776V8.6178V8.4678H11.5376H9.11475H8.96475V8.6178V12.9537ZM13.4406 12.9911L13.4696 13.1037H13.5859H14.1953H14.3136L14.3412 12.9886L14.9918 10.2693L15.6135 12.9872L15.6402 13.1037H15.7597H16.372H16.4858L16.5165 12.9942L17.7323 8.6583L17.7857 8.4678H17.5879H17.0869H16.9734L16.9425 8.57699L16.1471 11.3904L15.5046 8.58432L15.4779 8.4678H15.3584H14.7666H14.6482L14.6207 8.58298L13.9432 11.4216L13.2067 8.58016L13.1776 8.4678H13.0615H12.4697H12.2762L12.3244 8.65519L13.4406 12.9911Z" fill="white" stroke="white" stroke-width="0.3"/>
</svg>
